<?xml version="1.0" encoding="UTF-8" standalone="no"?>
<!-- Created with Inkscape (http://www.inkscape.org/) -->

<svg
   width="60mm"
   height="50mm"
   viewBox="0 0 60 50"
   version="1.1"
   id="svg1"
   xml:space="preserve"
   inkscape:version="1.3.2 (091e20e, 2023-11-25, custom)"
   sodipodi:docname="all_weather.svg"
   xmlns:inkscape="http://www.inkscape.org/namespaces/inkscape"
   xmlns:sodipodi="http://sodipodi.sourceforge.net/DTD/sodipodi-0.dtd"
   xmlns="http://www.w3.org/2000/svg"
   xmlns:svg="http://www.w3.org/2000/svg"><sodipodi:namedview
     id="namedview1"
     pagecolor="#ffffff"
     bordercolor="#000000"
     borderopacity="0.25"
     inkscape:showpageshadow="2"
     inkscape:pageopacity="0.0"
     inkscape:pagecheckerboard="0"
     inkscape:deskcolor="#d1d1d1"
     inkscape:document-units="mm"
     inkscape:zoom="1.4627806"
     inkscape:cx="230.72497"
     inkscape:cy="83.060988"
     inkscape:window-width="1920"
     inkscape:window-height="1017"
     inkscape:window-x="1912"
     inkscape:window-y="-8"
     inkscape:window-maximized="1"
     inkscape:current-layer="layer1" /><defs
     id="defs1" /><g
     inkscape:label="Layer 1"
     inkscape:groupmode="layer"
     id="layer1"><g
       id="g5"
       transform="translate(0.25657681,1.4389471)"><path
         style="fill:#000000"
         d="m 11.40348,30.995669 c -4.0364694,-0.82737 -7.0623904,-5.30537 -6.1554094,-9.10927 0.734822,-3.08185 3.191466,-5.44767 6.2629224,-6.03138 l 1.597293,-0.30355 0.848753,-1.63702 c 1.658777,-3.19933 5.061949,-5.6620101 8.400807,-6.0791801 4.332327,-0.54128 8.912687,2.05748 10.833967,6.1468701 0.73013,1.55406 0.77603,1.59434 2.14439,1.88135 1.32435,0.27779 3.51858,1.52839 4.2545,2.42486 0.18558,0.22606 0.716,1.1254 1.17872,1.99852 1.16641,2.20095 1.16019,4.0633 -0.0218,6.53573 -0.91287,1.90944 -1.51984,2.46461 -3.92841,3.59314 l -1.53465,0.71905 -11.377078,0.0459 c -6.257395,0.0253 -11.884188,-0.058 -12.503985,-0.18505 z m 22.946273,-3.82396 c 1.92675,-0.51275 2.69365,-1.13369 3.25301,-2.63388 0.44927,-1.20497 0.44802,-1.29111 -0.0347,-2.38239 -0.49893,-1.12792 -1.77917,-2.31585 -2.84311,-2.6381 -0.49328,-0.14941 -0.57694,-0.0402 -0.70592,0.92133 -0.28381,2.11603 -2.20994,3.10821 -3.31261,1.70639 -0.4496,-0.57158 -0.49852,-0.95322 -0.38264,-2.98552 0.12096,-2.12154 0.0722,-2.44993 -0.54505,-3.66794 -0.86197,-1.70102 -2.12455,-2.80751 -4.007418,-3.51198 -1.9798,-0.74074 -2.882301,-0.70189 -4.774256,0.20551 -1.666985,0.79949 -2.821873,1.8719 -3.825497,3.55226 l -0.601309,1.00677 1.052423,0.90083 c 1.392847,1.19223 1.823946,2.21777 1.347774,3.20624 -0.382926,0.7949 -1.358402,1.18325 -2.206724,0.87853 -0.291041,-0.10454 -0.992671,-0.61506 -1.559176,-1.13449 -1.792071,-1.64316 -3.589101,-1.52799 -5.2749824,0.33808 -1.211974,1.34151 -1.410782,2.32437 -0.763034,3.77224 0.61374,1.37185 1.2107284,1.93451 2.5876554,2.43883 1.534051,0.56188 20.500664,0.58478 22.595574,0.0273 z"
         id="path2"
         sodipodi:nodetypes="ssscssssssssccssssssssscssscsssssssss" /><g
         id="g4"
         transform="translate(-75.636697,-57.854846)"><path
           style="fill:#b3b3b3"
           d="m 87.156781,88.905035 c -4.036469,-0.82736 -7.06239,-5.30536 -6.155409,-9.10926 0.734821,-3.081848 3.191466,-5.447668 6.262921,-6.031378 l 1.597294,-0.30355 0.848752,-1.63702 c 1.658778,-3.19934 5.06195,-5.66202 8.400804,-6.07918 4.332327,-0.54129 8.912687,2.05747 10.833967,6.14687 0.73013,1.55406 0.77604,1.59433 2.14439,1.88135 1.32436,0.27779 3.51858,1.52839 4.25451,2.42486 0.18557,0.22606 0.716,1.12539 1.17871,1.99852 1.16641,2.200948 1.16019,4.063298 -0.0218,6.535718 -0.91286,1.90945 -1.51984,2.46462 -3.92841,3.59315 l -1.53464,0.71905 -11.377087,0.0459 c -6.257392,0.0253 -11.884186,-0.058 -12.503982,-0.18506 z m 22.946279,-3.82396 c 1.92675,-0.51274 2.69365,-1.13368 3.253,-2.63388 0.44928,-1.20497 0.44802,-1.2911 -0.0347,-2.38238 -0.49894,-1.127928 -1.77918,-2.315848 -2.84311,-2.638108 -0.49329,-0.14941 -0.57695,-0.0402 -0.70592,0.92134 -0.28382,2.116028 -2.20994,3.108208 -3.31262,1.706388 -0.4496,-0.571578 -0.49852,-0.953218 -0.38264,-2.985518 0.12097,-2.12154 0.0722,-2.44993 -0.54504,-3.66794 -0.86198,-1.70102 -2.12456,-2.80751 -4.00742,-3.51198 -1.979807,-0.74074 -2.882307,-0.70189 -4.774257,0.2055 -1.666988,0.7995 -2.821877,1.8719 -3.8255,3.55227 l -0.601309,1.00677 1.052423,0.90083 c 1.392847,1.19223 1.823946,2.21777 1.347774,3.20624 -0.382926,0.794888 -1.358402,1.183248 -2.206724,0.878528 -0.291042,-0.104538 -0.992671,-0.615068 -1.559176,-1.134498 -1.792072,-1.64316 -3.589101,-1.52798 -5.274983,0.33809 -1.211973,1.341508 -1.410782,2.324368 -0.763033,3.772238 0.61374,1.37185 1.210728,1.9345 2.587655,2.43883 1.534051,0.56187 20.50067,0.58478 22.59558,0.0273 z"
           id="path3"
           sodipodi:nodetypes="ssscssssssssccssssssssssssscsssssssss" /><path
           style="fill:#fad913;fill-opacity:1"
           d="m 108.1354,97.938718 0.0736,-3.63802 h 1.85209 1.85208 l 0.0736,3.63802 0.0736,3.638022 h -1.9993 -1.99931 z m 8.36785,-1.5083 c -1.59387,-2.75908 -1.71158,-3.06351 -1.31804,-3.40875 0.40675,-0.35684 2.52281,-1.4991 2.7771,-1.4991 0.23787,0 3.60816,5.86364 3.60816,6.27749 0,0.21734 -2.71116,1.66001 -3.11959,1.66001 -0.1086,0 -0.98503,-1.36334 -1.94763,-3.02965 z m 8.24222,-4.3413 c -0.65484,-0.41674 -2.00102,-1.20054 -2.99151,-1.74177 -0.99048,-0.54123 -1.76439,-1.06478 -1.71979,-1.16343 0.5377,-1.18937 1.74671,-2.95254 2.02471,-2.95275 0.19587,-1.4e-4 1.55963,0.71229 3.03059,1.58319 1.47095,0.87091 2.79898,1.63085 2.95117,1.68878 0.35687,0.13582 -1.27167,3.18722 -1.74889,3.27688 -0.19561,0.0367 -0.89144,-0.27415 -1.54628,-0.6909 z m -2.11667,-10.62071 v -1.85209 h 3.70417 3.70417 v 1.85209 1.85208 h -3.70417 -3.70417 z m -1.71906,-6.155383 c -0.43616,-0.76189 -0.82407,-1.50431 -0.86202,-1.64983 -0.038,-0.14552 0.61657,-0.6504 1.45448,-1.12195 0.83791,-0.47155 2.2558,-1.27944 3.15087,-1.79532 l 1.62738,-0.93795 0.9523,1.52245 c 0.52377,0.83735 0.9523,1.60714 0.9523,1.71064 0,0.1035 -0.92273,0.69338 -2.05052,1.31084 -1.12778,0.61745 -2.46511,1.3997 -2.97183,1.73832 -0.50672,0.33862 -1.04251,0.61396 -1.19063,0.61186 -0.14812,-0.002 -0.62617,-0.62717 -1.06233,-1.38906 z m -4.82053,-4.78737 c -0.75912,-0.45717 -1.3842,-0.90548 -1.38906,-0.99625 -0.008,-0.15442 3.33985,-6.04998 3.56196,-6.27209 0.12119,-0.12119 2.97731,1.48532 3.15671,1.77559 0.0683,0.11045 -0.46604,1.20448 -1.18734,2.43118 -0.72129,1.2267 -1.51106,2.61731 -1.75502,3.09025 -0.24397,0.47294 -0.57036,0.84699 -0.72531,0.83122 -0.15494,-0.0158 -0.90282,-0.40273 -1.66194,-0.8599 z m -7.95381,-5.39528 0.0736,-3.63802 h 1.85209 1.85208 l 0.0736,3.63802 0.0736,3.63802 h -1.9993 -1.99931 z"
           id="path4"
           sodipodi:nodetypes="cccccccccsssssssssssscscccccccccscsscsssscsscssssssccccccccc" /></g><path
         style="fill:#fad913;fill-opacity:1"
         d="m 32.465988,39.978862 0.07361,-3.63803 h 1.852083 1.852083 l 0.07361,3.63803 0.07361,3.63802 h -1.999307 -1.999308 z m -8.437622,0.89746 -1.367484,-0.85309 0.983108,-1.8412 c 0.540709,-1.01266 1.374945,-2.46676 1.853858,-3.23133 l 0.870751,-1.39013 0.991408,0.59638 c 0.545274,0.32801 1.264029,0.77962 1.597233,1.00358 l 0.605826,0.4072 -1.721906,3.03238 c -0.947049,1.66782 -1.884672,3.0542 -2.083608,3.08085 -0.198936,0.0266 -0.977069,-0.33544 -1.729186,-0.80464 z m 17.108441,-1.93459 c -0.909989,-1.54371 -1.706523,-3.00559 -1.770076,-3.24861 -0.130087,-0.49746 2.412062,-2.24593 2.959812,-2.03574 0.28849,0.1107 3.33876,5.20842 3.51957,5.88203 0.0712,0.26521 -1.13267,1.18795 -2.4921,1.91015 -0.52411,0.27843 -0.67609,0.10652 -2.217206,-2.50783 z m -24.273768,-5.22785 c -0.472943,-0.78173 -0.859896,-1.53096 -0.859896,-1.66495 0,-0.13399 1.041797,-0.82159 2.315104,-1.52799 1.273307,-0.70641 2.63114,-1.50162 3.017406,-1.76714 0.386266,-0.26551 0.764599,-0.48276 0.840739,-0.48276 0.185791,0 2.111841,3.18293 1.99127,3.29071 -0.236004,0.21096 -6.181821,3.58763 -6.305548,3.58096 -0.07655,-0.004 -0.526132,-0.6471 -0.999075,-1.42883 z m 32.080724,0.28081 c -3.2756,-1.81207 -4.14794,-2.36302 -4.27796,-2.70185 -0.16637,-0.43353 1.25899,-3.02116 1.66436,-3.02153 0.36927,-3.3e-4 5.38962,2.81671 5.89154,3.30589 0.31276,0.30482 0.25011,0.56599 -0.4205,1.75299 -0.4334,0.76713 -0.89644,1.42807 -1.02897,1.46875 -0.13253,0.0407 -0.95534,-0.32124 -1.82847,-0.80425 z m -17.065621,0.26456 c -3.119517,-0.68049 -6.222529,-3.21672 -7.65012,-6.25279 -0.611923,-1.30138 -0.684254,-1.77685 -0.684254,-4.49792 0,-2.77686 0.06281,-3.16985 0.718843,-4.49792 1.16934,-2.36717 2.865878,-4.08001 5.168285,-5.21792 1.953926,-0.96568 2.118156,-0.99978 4.814774,-0.99978 2.621338,0 2.908856,0.0548 4.707708,0.89797 4.347375,2.03763 6.987135,6.91052 6.191255,11.4288 -0.81905,4.64982 -4.089613,8.19253 -8.407797,9.10742 -2.139298,0.45324 -2.905061,0.45831 -4.858694,0.0321 z M 14.33477,25.456142 c -0.101041,-0.10104 -0.18371,-0.9973 -0.18371,-1.9917 v -1.80798 h 3.715758 3.715757 l -0.07774,1.91823 -0.07774,1.91823 -3.45431,0.0735 c -1.899871,0.0404 -3.53698,-0.009 -3.638021,-0.11024 z m 32.624623,-1.80784 v -1.99184 h 3.71576 3.71576 l -0.0777,1.91823 -0.0777,1.91823 -3.63803,0.0736 -3.63802,0.0736 z m -1.81401,-6.45837 c -0.64475,-1.20968 -0.75604,-1.61677 -0.49988,-1.82859 0.74975,-0.61999 5.88117,-3.44678 6.05822,-3.33735 0.28257,0.17464 1.88603,3.03197 1.76781,3.15019 -0.21489,0.21489 -6.15621,3.57186 -6.32164,3.57186 -0.0963,0 -0.54834,-0.70025 -1.00451,-1.55611 z m -26.061741,-0.41742 c -1.579944,-0.93453 -2.932258,-1.75878 -3.005144,-1.83167 -0.07288,-0.0729 0.309178,-0.85963 0.84903,-1.74832 0.931726,-1.53379 1.010399,-1.59694 1.549936,-1.24419 0.312613,0.20439 1.671663,0.99857 3.02011,1.76485 1.348448,0.76627 2.516155,1.49748 2.594905,1.6249 0.183688,0.29721 -1.510641,3.14498 -1.867297,3.13848 -0.147903,-0.003 -1.561596,-0.76952 -3.14154,-1.70405 z m 21.791356,-3.99937 c -1.880022,-1.08253 -1.897778,-1.10831 -1.417318,-2.05736 0.358456,-0.70805 2.944653,-5.1434701 3.163633,-5.4257401 0.0978,-0.1261 2.96616,1.521 3.14079,1.80355 0.14111,0.22833 -2.3542,4.7064601 -3.21368,5.7673501 l -0.48382,0.59719 z m -16.350976,-2.5421 C 23.607954,8.6099519 22.917751,7.1290619 22.990237,6.9401719 c 0.07249,-0.1889 0.748301,-0.65586 1.501811,-1.03769 1.13708,-0.5762 1.427616,-0.63426 1.708774,-0.34149 0.687798,0.71623 3.326846,5.5794701 3.202934,5.9023801 -0.141939,0.36989 -2.44689,1.72971 -2.916751,1.72075 -0.163572,-0.003 -1.046914,-1.332 -1.962983,-2.95308 z m 7.883287,-3.1266701 v -3.70416 h 1.984375 1.984375 v 3.70416 3.7041701 h -1.984375 -1.984375 z"
         id="path1"
         sodipodi:nodetypes="cccccccccscsscsscscssssssssssssscsssssscscsscsscsscccscccccccccccccccccssssssscsssscsssssscsssscscsccccccccc" /></g></g></svg>
