<?xml version="1.0" encoding="UTF-8" standalone="no"?>
<!-- Created with Inkscape (http://www.inkscape.org/) -->

<svg
   width="60mm"
   height="50mm"
   viewBox="0 0 60 50"
   version="1.1"
   id="svg1"
   xml:space="preserve"
   inkscape:version="1.3.2 (091e20e, 2023-11-25, custom)"
   sodipodi:docname="black_cloud.svg"
   xmlns:inkscape="http://www.inkscape.org/namespaces/inkscape"
   xmlns:sodipodi="http://sodipodi.sourceforge.net/DTD/sodipodi-0.dtd"
   xmlns="http://www.w3.org/2000/svg"
   xmlns:svg="http://www.w3.org/2000/svg"><sodipodi:namedview
     id="namedview1"
     pagecolor="#ffffff"
     bordercolor="#000000"
     borderopacity="0.25"
     inkscape:showpageshadow="2"
     inkscape:pageopacity="0.0"
     inkscape:pagecheckerboard="0"
     inkscape:deskcolor="#d1d1d1"
     inkscape:document-units="mm"
     inkscape:zoom="1.4627806"
     inkscape:cx="230.72497"
     inkscape:cy="83.060988"
     inkscape:window-width="1920"
     inkscape:window-height="1017"
     inkscape:window-x="1912"
     inkscape:window-y="-8"
     inkscape:window-maximized="1"
     inkscape:current-layer="layer1" /><defs
     id="defs1" /><g
     inkscape:label="Layer 1"
     inkscape:groupmode="layer"
     id="layer1"><path
       style="fill:#000000"
       d="m 11.660057,32.434616 c -4.0364696,-0.82737 -7.0623906,-5.30537 -6.1554096,-9.10927 0.734822,-3.08185 3.191466,-5.44767 6.2629226,-6.03138 l 1.597293,-0.30355 0.848753,-1.63702 c 1.658777,-3.19933 5.061949,-5.66201 8.400807,-6.07918 4.332327,-0.54128 8.912687,2.05748 10.833967,6.14687 0.73013,1.55406 0.77603,1.59434 2.14439,1.88135 1.32435,0.27779 3.51858,1.52839 4.2545,2.42486 0.18558,0.22606 0.716,1.1254 1.17872,1.99852 1.16641,2.20095 1.16019,4.0633 -0.0218,6.53573 -0.91287,1.90944 -1.51984,2.46461 -3.92841,3.59314 l -1.53465,0.71905 -11.377078,0.0459 c -6.257395,0.0253 -11.884188,-0.058 -12.503985,-0.18505 z m 22.946273,-3.82396 c 1.92675,-0.51275 2.69365,-1.13369 3.25301,-2.63388 0.44927,-1.20497 0.44802,-1.29111 -0.0347,-2.38239 -0.49893,-1.12792 -1.77917,-2.31585 -2.84311,-2.6381 -0.49328,-0.14941 -0.57694,-0.0402 -0.70592,0.92133 -0.28381,2.11603 -2.20994,3.10821 -3.31261,1.70639 -0.4496,-0.57158 -0.49852,-0.95322 -0.38264,-2.98552 0.12096,-2.12154 0.0722,-2.44993 -0.54505,-3.66794 -0.86197,-1.70102 -2.12455,-2.80751 -4.007418,-3.51198 -1.9798,-0.74074 -2.882301,-0.70189 -4.774256,0.20551 -1.666985,0.79949 -2.821873,1.8719 -3.825497,3.55226 l -0.601309,1.00677 1.052423,0.90083 c 1.392847,1.19223 1.823946,2.21777 1.347774,3.20624 -0.382926,0.7949 -1.358402,1.18325 -2.206724,0.87853 -0.291041,-0.10454 -0.992671,-0.61506 -1.559176,-1.13449 -1.792071,-1.64316 -3.589101,-1.52799 -5.274983,0.33808 -1.2119736,1.34151 -1.4107816,2.32437 -0.7630336,3.77224 0.6137396,1.37185 1.2107286,1.93451 2.5876556,2.43883 1.534051,0.56188 20.500664,0.58478 22.595574,0.0273 z"
       id="path2"
       sodipodi:nodetypes="ssscssssssssccssssssssscssscsssssssss" /></g></svg>
