<?xml version="1.0" encoding="UTF-8" standalone="no"?>
<!-- Created with Inkscape (http://www.inkscape.org/) -->

<svg
   width="60mm"
   height="50mm"
   viewBox="0 0 60 50"
   version="1.1"
   id="svg1"
   xml:space="preserve"
   inkscape:version="1.3.2 (091e20e, 2023-11-25, custom)"
   sodipodi:docname="grey_cloud.svg"
   xmlns:inkscape="http://www.inkscape.org/namespaces/inkscape"
   xmlns:sodipodi="http://sodipodi.sourceforge.net/DTD/sodipodi-0.dtd"
   xmlns="http://www.w3.org/2000/svg"
   xmlns:svg="http://www.w3.org/2000/svg"><sodipodi:namedview
     id="namedview1"
     pagecolor="#ffffff"
     bordercolor="#000000"
     borderopacity="0.25"
     inkscape:showpageshadow="2"
     inkscape:pageopacity="0.0"
     inkscape:pagecheckerboard="0"
     inkscape:deskcolor="#d1d1d1"
     inkscape:document-units="mm"
     inkscape:zoom="1.4627806"
     inkscape:cx="230.72497"
     inkscape:cy="83.060988"
     inkscape:window-width="1920"
     inkscape:window-height="1017"
     inkscape:window-x="1912"
     inkscape:window-y="-8"
     inkscape:window-maximized="1"
     inkscape:current-layer="layer1" /><defs
     id="defs1" /><g
     inkscape:label="Layer 1"
     inkscape:groupmode="layer"
     id="layer1"><g
       id="g4"
       transform="translate(-75.38012,-56.415899)"><path
         style="fill:#b3b3b3"
         d="m 87.156781,88.905035 c -4.036469,-0.82736 -7.06239,-5.30536 -6.155409,-9.10926 0.734821,-3.081848 3.191466,-5.447668 6.262921,-6.031378 l 1.597294,-0.30355 0.848752,-1.63702 c 1.658778,-3.19934 5.06195,-5.66202 8.400804,-6.07918 4.332327,-0.54129 8.912687,2.05747 10.833967,6.14687 0.73013,1.55406 0.77604,1.59433 2.14439,1.88135 1.32436,0.27779 3.51858,1.52839 4.25451,2.42486 0.18557,0.22606 0.716,1.12539 1.17871,1.99852 1.16641,2.200948 1.16019,4.063298 -0.0218,6.535718 -0.91286,1.90945 -1.51984,2.46462 -3.92841,3.59315 l -1.53464,0.71905 -11.377087,0.0459 c -6.257392,0.0253 -11.884186,-0.058 -12.503982,-0.18506 z m 22.946279,-3.82396 c 1.92675,-0.51274 2.69365,-1.13368 3.253,-2.63388 0.44928,-1.20497 0.44802,-1.2911 -0.0347,-2.38238 -0.49894,-1.127928 -1.77918,-2.315848 -2.84311,-2.638108 -0.49329,-0.14941 -0.57695,-0.0402 -0.70592,0.92134 -0.28382,2.116028 -2.20994,3.108208 -3.31262,1.706388 -0.4496,-0.571578 -0.49852,-0.953218 -0.38264,-2.985518 0.12097,-2.12154 0.0722,-2.44993 -0.54504,-3.66794 -0.86198,-1.70102 -2.12456,-2.80751 -4.00742,-3.51198 -1.979807,-0.74074 -2.882307,-0.70189 -4.774257,0.2055 -1.666988,0.7995 -2.821877,1.8719 -3.8255,3.55227 l -0.601309,1.00677 1.052423,0.90083 c 1.392847,1.19223 1.823946,2.21777 1.347774,3.20624 -0.382926,0.794888 -1.358402,1.183248 -2.206724,0.878528 -0.291042,-0.104538 -0.992671,-0.615068 -1.559176,-1.134498 -1.792072,-1.64316 -3.589101,-1.52798 -5.274983,0.33809 -1.211973,1.341508 -1.410782,2.324368 -0.763033,3.772238 0.61374,1.37185 1.210728,1.9345 2.587655,2.43883 1.534051,0.56187 20.50067,0.58478 22.59558,0.0273 z"
         id="path3"
         sodipodi:nodetypes="ssscssssssssccssssssssssssscsssssssss" /><path
         style="fill:#fad913;fill-opacity:1"
         d="m 108.1354,97.938718 0.0736,-3.63802 h 1.85209 1.85208 l 0.0736,3.63802 0.0736,3.638022 h -1.9993 -1.99931 z m 8.36785,-1.5083 c -1.59387,-2.75908 -1.71158,-3.06351 -1.31804,-3.40875 0.40675,-0.35684 2.52281,-1.4991 2.7771,-1.4991 0.23787,0 3.60816,5.86364 3.60816,6.27749 0,0.21734 -2.71116,1.66001 -3.11959,1.66001 -0.1086,0 -0.98503,-1.36334 -1.94763,-3.02965 z m 8.24222,-4.3413 c -0.65484,-0.41674 -2.00102,-1.20054 -2.99151,-1.74177 -0.99048,-0.54123 -1.76439,-1.06478 -1.71979,-1.16343 0.5377,-1.18937 1.74671,-2.95254 2.02471,-2.95275 0.19587,-1.4e-4 1.55963,0.71229 3.03059,1.58319 1.47095,0.87091 2.79898,1.63085 2.95117,1.68878 0.35687,0.13582 -1.27167,3.18722 -1.74889,3.27688 -0.19561,0.0367 -0.89144,-0.27415 -1.54628,-0.6909 z m -2.11667,-10.62071 v -1.85209 h 3.70417 3.70417 v 1.85209 1.85208 h -3.70417 -3.70417 z m -1.71906,-6.155383 c -0.43616,-0.76189 -0.82407,-1.50431 -0.86202,-1.64983 -0.038,-0.14552 0.61657,-0.6504 1.45448,-1.12195 0.83791,-0.47155 2.2558,-1.27944 3.15087,-1.79532 l 1.62738,-0.93795 0.9523,1.52245 c 0.52377,0.83735 0.9523,1.60714 0.9523,1.71064 0,0.1035 -0.92273,0.69338 -2.05052,1.31084 -1.12778,0.61745 -2.46511,1.3997 -2.97183,1.73832 -0.50672,0.33862 -1.04251,0.61396 -1.19063,0.61186 -0.14812,-0.002 -0.62617,-0.62717 -1.06233,-1.38906 z m -4.82053,-4.78737 c -0.75912,-0.45717 -1.3842,-0.90548 -1.38906,-0.99625 -0.008,-0.15442 3.33985,-6.04998 3.56196,-6.27209 0.12119,-0.12119 2.97731,1.48532 3.15671,1.77559 0.0683,0.11045 -0.46604,1.20448 -1.18734,2.43118 -0.72129,1.2267 -1.51106,2.61731 -1.75502,3.09025 -0.24397,0.47294 -0.57036,0.84699 -0.72531,0.83122 -0.15494,-0.0158 -0.90282,-0.40273 -1.66194,-0.8599 z m -7.95381,-5.39528 0.0736,-3.63802 h 1.85209 1.85208 l 0.0736,3.63802 0.0736,3.63802 h -1.9993 -1.99931 z"
         id="path4"
         sodipodi:nodetypes="cccccccccsssssssssssscscccccccccscsscsssscsscssssssccccccccc" /></g></g></svg>
