<?xml version="1.0" encoding="UTF-8" standalone="no"?>
<!-- Created with Inkscape (http://www.inkscape.org/) -->

<svg
   width="50mm"
   height="50mm"
   viewBox="0 0 50 50"
   version="1.1"
   id="svg1"
   inkscape:version="1.3.2 (091e20e, 2023-11-25, custom)"
   sodipodi:docname="info.svg"
   xmlns:inkscape="http://www.inkscape.org/namespaces/inkscape"
   xmlns:sodipodi="http://sodipodi.sourceforge.net/DTD/sodipodi-0.dtd"
   xmlns="http://www.w3.org/2000/svg"
   xmlns:svg="http://www.w3.org/2000/svg">
  <sodipodi:namedview
     id="namedview1"
     pagecolor="#ffffff"
     bordercolor="#000000"
     borderopacity="0.25"
     inkscape:showpageshadow="2"
     inkscape:pageopacity="0.0"
     inkscape:pagecheckerboard="0"
     inkscape:deskcolor="#d1d1d1"
     inkscape:document-units="mm"
     inkscape:zoom="0.73139029"
     inkscape:cx="397.18876"
     inkscape:cy="561.25984"
     inkscape:window-width="1920"
     inkscape:window-height="1017"
     inkscape:window-x="-8"
     inkscape:window-y="-8"
     inkscape:window-maximized="1"
     inkscape:current-layer="layer1" />
  <defs
     id="defs1" />
  <g
     inkscape:label="Layer 1"
     inkscape:groupmode="layer"
     id="layer1">
    <circle
       style="fill:#000000;fill-opacity:1;stroke:none;stroke-width:0.545453"
       id="path1"
       cx="25"
       cy="25"
       r="23.875761" />
    <path
       d="M 32.195647,40.066059 H 17.979856 v -0.702014 l 1.053021,-0.04388 q 1.272402,-0.131628 1.535657,-0.614263 0.263255,-0.482635 0.263255,-2.106043 l 0.04388,-2.018291 V 24.095231 l -0.04388,-1.798911 q -0.08775,-1.053022 -0.263255,-1.579533 -0.175504,-0.526511 -1.579533,-0.658138 l -1.184649,-0.08775 v -0.702015 h 11.495486 v 15.31269 l 0.04388,2.018291 q 0,1.579532 0.263255,2.106043 0.263256,0.482635 1.535657,0.614263 l 1.053021,0.04388 z M 20.787913,11.941607 q 0,-1.71116 1.228526,-2.8958094 1.272401,-1.2285252 3.027437,-1.2285252 1.798912,0 3.027437,1.1846493 1.272401,1.1407733 1.272401,2.9396853 0,1.755036 -1.272401,2.983561 -1.228525,1.18465 -3.027437,1.18465 -1.755036,0 -3.027437,-1.18465 -1.228526,-1.228525 -1.228526,-2.983561 z"
       id="text1"
       style="font-size:43.8759px;font-family:Elephant;-inkscape-font-specification:'Elephant, Normal';text-align:end;text-anchor:end;fill:#ffffff;stroke-width:5.18219"
       aria-label="i" />
  </g>
</svg>
