<?xml version="1.0" encoding="UTF-8" standalone="no"?>
<!-- Created with Inkscape (http://www.inkscape.org/) -->

<svg
   width="180mm"
   height="120mm"
   viewBox="0 0 180 120"
   version="1.1"
   id="svg1"
   xml:space="preserve"
   inkscape:version="1.3.2 (091e20e, 2023-11-25, custom)"
   sodipodi:docname="museum.svg"
   xmlns:inkscape="http://www.inkscape.org/namespaces/inkscape"
   xmlns:sodipodi="http://sodipodi.sourceforge.net/DTD/sodipodi-0.dtd"
   xmlns="http://www.w3.org/2000/svg"
   xmlns:svg="http://www.w3.org/2000/svg"><sodipodi:namedview
     id="namedview1"
     pagecolor="#ffffff"
     bordercolor="#000000"
     borderopacity="0.25"
     inkscape:showpageshadow="2"
     inkscape:pageopacity="0.0"
     inkscape:pagecheckerboard="0"
     inkscape:deskcolor="#d1d1d1"
     inkscape:document-units="mm"
     inkscape:zoom="0.73139029"
     inkscape:cx="412.91223"
     inkscape:cy="364.37454"
     inkscape:window-width="1920"
     inkscape:window-height="1017"
     inkscape:window-x="1912"
     inkscape:window-y="-8"
     inkscape:window-maximized="1"
     inkscape:current-layer="layer1" /><defs
     id="defs1" /><g
     inkscape:label="Layer 1"
     inkscape:groupmode="layer"
     id="layer1"><path
       style="fill:#000000"
       d="m 45.965527,112.51158 4.1e-5,-1.03977 -9.334084,0.0484 -9.334084,0.0484 0.120429,-2.85131 c 0.06624,-1.56822 0.154109,-3.25817 0.195272,-3.75545 0.04116,-0.49729 0.121654,-1.83995 0.178867,-2.9837 0.128597,-2.570773 0.245533,-4.71124 0.360581,-6.60029 0.08671,-1.42375 0.156938,-2.66296 0.363806,-6.41947 0.05751,-1.04429 0.137675,-2.42764 0.178147,-3.07411 0.04047,-0.64646 0.119522,-2.15187 0.175664,-3.34535 0.05614,-1.19348 0.141362,-2.73957 0.189377,-3.43577 0.04802,-0.69619 0.130196,-2.03886 0.182624,-2.98369 0.05243,-0.94484 0.131682,-2.368876 0.176121,-3.164526 0.04444,-0.79565 0.127029,-2.301061 0.183534,-3.345351 0.05651,-1.0443 0.137076,-2.42765 0.179047,-3.07411 0.04197,-0.64647 0.123298,-2.27394 0.180726,-3.6166 0.05743,-1.34266 0.146607,-2.7667 0.198174,-3.16453 0.09307,-0.71802 0.09137,-0.72044 -0.232818,-0.33063 -0.937823,1.12767 -17.147004,18.865707 -17.239657,18.865707 -0.05993,0 -1.389894,-1.4242 -2.9554723,-3.16489 C 7.9162282,73.105874 6.9345582,71.879984 7.0212812,71.739664 7.1944992,71.459384 28.078589,48.215413 28.919012,47.367503 c 0.471894,-0.4761 0.603755,-0.5433 0.532218,-0.27124 -0.0523,0.19891 -0.148327,0.62612 -0.213383,0.94935 l -0.118283,0.5877 h 15.183019 15.183019 l 0.115778,1.2206 c 0.06368,0.67133 0.162167,1.60713 0.218865,2.07955 l 0.103087,0.85894 H 56.514671 53.10601 l -5.378561,5.3808 -5.378562,5.38081 V 73.724584 83.89515 h 14.828058 14.828057 l 0.0033,-3.84263 0.0033,-3.84264 3.206429,-2.839406 c 1.763535,-1.56167 3.448559,-3.067081 3.744496,-3.345351 1.417384,-1.33277 11.026284,-9.81869 11.118034,-9.81869 0.0576,0 2.50363,2.08013 5.43573,4.62252 2.9321,2.54239 7.096359,6.143171 9.253899,8.001731 l 3.92282,3.379196 0.0102,3.84264 0.0102,3.84263 h 16.16725 16.16725 l -0.0133,-10.262096 -0.0133,-10.262101 -5.43973,-5.28317 -5.43973,-5.28317 -15.85963,-0.006 -15.859639,-0.006 -0.14381,-0.67811 c -0.0791,-0.37296 -0.13697,-1.53254 -0.1286,-2.57683 0.0367,-4.57381 1.839316,-7.22074 6.494659,-9.53644 2.17076,-1.0798 2.80309,-1.20294 5.96739,-1.16204 l 2.89328,0.0374 1.14025,-1.17096 c 1.93277,-1.98481 3.74903,-2.62143 7.39414,-2.59173 2.51104,0.0205 2.55869,1.5e-4 3.25527,-1.38748 1.05677,-2.10517 3.0045,-4.33026 4.76172,-5.43982 2.32471,-1.46789 4.58719,-1.87976 7.90724,-1.43947 1.82292,0.24175 1.80868,0.24373 3.3441,-0.46399 1.64101,-0.75639 2.87914,-1.07191 4.21657,-1.07453 1.53432,-0.003 2.73482,0.40244 4.30884,1.45521 2.10508,1.40796 3.16159,2.99848 3.32239,5.00169 l 0.0911,1.13519 0.74278,0.20001 c 1.84138,0.49583 2.93078,1.4619 3.65489,3.24108 0.74488,1.83024 0.7653,2.86321 0.0952,4.81489 -0.31024,0.90354 -0.56407,1.76069 -0.56407,1.90477 0,0.15709 0.38006,0.38294 0.94936,0.56417 1.42975,0.45512 1.98031,0.87154 2.57671,1.94891 0.46568,0.84123 0.54118,1.16448 0.53498,2.29047 l -0.007,1.31102 h 0.73796 c 1.10922,0 2.70873,0.47329 4.14243,1.22574 1.71383,0.89947 3.16558,2.3945 4.03616,4.15651 l 0.68229,1.38091 -0.0116,2.45019 c -0.0101,2.12833 -0.0725,2.63317 -0.47541,3.8432 -0.27309,0.82016 -0.81288,1.88217 -1.31262,2.58249 -0.46684,0.65422 -0.82252,1.25875 -0.79041,1.34341 0.0321,0.0846 0.62535,0.61705 1.3183,1.1831 1.60458,1.31073 2.34303,2.17804 2.91135,3.41941 1.05053,2.294671 0.60412,4.625767 -1.39979,7.309487 -1.70437,2.28255 -3.69959,2.97469 -9.19094,3.18833 -2.35434,0.0916 -4.57487,-0.13733 -7.08645,-0.73056 -1.54077,-0.36393 -2.13396,-0.60057 -2.92459,-1.16673 -1.51525,-1.08504 -1.98506,-0.98636 -2.94933,0.61949 -0.36709,0.61133 -1.08995,1.68112 -1.60637,2.37732 -1.13147,1.52536 -1.54855,2.32742 -2.04055,3.92396 -0.8777,2.84817 -1.19857,5.5659 -1.20202,10.18078 -0.003,4.62107 0.25439,7.6494 0.73215,8.5988 0.56355,1.1199 3.04232,2.7718 5.68488,3.78852 0.82448,0.31722 1.6551,0.8935 1.54488,1.07184 -0.165,0.26698 -2.60943,0.37376 -4.37207,0.19098 -0.97282,-0.10088 -2.66729,-0.39105 -3.7655,-0.64484 -1.09821,-0.25378 -2.49057,-0.52772 -3.09414,-0.60875 -0.60358,-0.081 -1.35224,-0.27912 -1.6637,-0.44018 -0.31146,-0.16106 -0.59068,-0.29296 -0.62048,-0.29311 -0.0298,-1.5e-4 -0.0298,1.22045 8e-5,2.71245 l 0.0543,2.71272 H 121.1094 103.65024 V 96.9602 80.36905 H 90.346491 77.04274 l 0.130971,16.59115 0.130971,16.59115 H 61.635084 45.965487 Z M 18.698184,26.258073 C 12.304153,19.166153 7.0321222,13.258013 6.9825602,13.128853 c -0.09969,-0.25979 5.4683098,-6.49966 5.7217038,-6.41213 0.08682,0.03 5.300175,5.74193 11.585224,12.6932 l 11.427362,12.63865 -0.913836,0.78732 c -1.183843,1.01994 -2.715162,3.03364 -3.698538,4.86361 l -0.780781,1.45295 z m 34.501051,6.24985 c -1.278191,-1.04722 -4.095177,-1.99747 -6.68448,-2.25485 -0.642739,-0.0639 -1.347618,-0.16554 -1.566396,-0.22588 -0.349042,-0.0963 0.901254,-1.54746 10.204509,-11.84419 l 10.602289,-11.73449 0.728925,0.81995 c 0.400909,0.45098 1.719718,1.91384 2.930686,3.2508 l 2.201759,2.43085 -8.772876,9.7495 c -4.825082,5.36222 -8.867379,9.84596 -8.982883,9.96387 -0.161452,0.16481 -0.314406,0.12884 -0.661533,-0.15556 z"
       id="path1" /></g></svg>
