<?xml version="1.0" encoding="UTF-8" standalone="no"?>
<!-- Created with Inkscape (http://www.inkscape.org/) -->

<svg
   width="80mm"
   height="100mm"
   viewBox="0 0 80 100"
   version="1.1"
   id="svg1"
   xml:space="preserve"
   inkscape:version="1.3.2 (091e20e, 2023-11-25, custom)"
   sodipodi:docname="pylon.svg"
   xmlns:inkscape="http://www.inkscape.org/namespaces/inkscape"
   xmlns:sodipodi="http://sodipodi.sourceforge.net/DTD/sodipodi-0.dtd"
   xmlns="http://www.w3.org/2000/svg"
   xmlns:svg="http://www.w3.org/2000/svg"><sodipodi:namedview
     id="namedview1"
     pagecolor="#ffffff"
     bordercolor="#000000"
     borderopacity="0.25"
     inkscape:showpageshadow="2"
     inkscape:pageopacity="0.0"
     inkscape:pagecheckerboard="0"
     inkscape:deskcolor="#d1d1d1"
     inkscape:document-units="mm"
     inkscape:zoom="1.0343421"
     inkscape:cx="324.36078"
     inkscape:cy="247.98373"
     inkscape:window-width="1920"
     inkscape:window-height="1017"
     inkscape:window-x="1912"
     inkscape:window-y="-8"
     inkscape:window-maximized="1"
     inkscape:current-layer="layer1" /><defs
     id="defs1" /><g
     inkscape:label="Layer 1"
     inkscape:groupmode="layer"
     id="layer1"><path
       style="fill:#000000;stroke-width:0.747611"
       d="m 24.448069,91.844379 c -1.031273,-0.560238 -1.027938,-0.79033 0.142565,-9.836192 0.594869,-4.597262 1.565729,-11.963658 2.157466,-16.369778 0.591738,-4.406113 1.389725,-10.458959 1.773305,-13.450764 0.383581,-2.991812 0.747094,-5.728943 0.807808,-6.082518 l 0.110389,-0.642871 H 25.07892 20.718238 v 3.250912 c 0,1.788001 -0.08356,3.470694 -0.185688,3.739311 -0.314486,0.827164 -1.000372,1.317605 -1.842668,1.317605 -1.839505,0 -2.125558,-0.677957 -2.125558,-5.037688 v -3.27014 H 12.311508 8.058692 v 3.672408 c 0,2.140485 -0.08496,3.831147 -0.203669,4.052963 -0.260181,0.486149 -1.207354,0.97807 -1.8832448,0.97807 -0.332314,0 -0.770235,-0.246121 -1.196655,-0.672536 L 4.102585,52.820618 v -4.974739 c 0,-6.029273 -0.025105,-5.944509 1.9294872,-6.515452 0.7338658,-0.214363 6.5415288,-1.87364 12.9059168,-3.687277 6.364389,-1.813637 11.669365,-3.399896 11.788837,-3.525016 0.119471,-0.12512 0.592207,-3.164907 1.050525,-6.755069 0.458321,-3.59017 0.882299,-6.816875 0.942175,-7.17045 l 0.108867,-0.64287 h -6.252882 -6.252884 v 2.756404 c 0,1.516013 -0.08356,2.976172 -0.185687,3.244789 -0.313528,0.824645 -1.000679,1.317612 -1.836625,1.317612 -0.954808,0 -1.64444,-0.441816 -1.918995,-1.229402 -0.323093,-0.926828 -0.279499,-8.117866 0.05405,-8.916165 0.210591,-0.504025 0.657676,-0.851335 2.126407,-1.651892 3.513422,-1.915053 8.785664,-4.756958 11.082256,-5.9736887 l 2.299318,-1.218174 h 7.933838 7.933835 l 4.503347,2.4068767 c 2.476843,1.323782 5.883041,3.139385 7.569337,4.034676 2.148986,1.140937 3.169206,1.796569 3.411103,2.192093 0.298289,0.487741 0.345254,1.108647 0.346159,4.576217 7.47e-4,4.26518 -0.148169,5.132192 -0.958236,5.565732 -0.563841,0.301758 -1.532326,0.265185 -2.206222,-0.0833 -0.79436,-0.410775 -0.985995,-1.264988 -0.98731,-4.400857 l -7.48e-4,-2.620922 H 53.236138 46.98383 l 0.104628,0.445067 c 0.05757,0.244783 0.480781,3.47148 0.940525,7.170442 0.459743,3.698963 0.934125,6.823296 1.054191,6.942959 0.212867,0.21215 2.275077,0.809491 16.339442,4.732871 9.294436,2.592767 9.484816,2.656172 9.974433,3.322017 0.37975,0.516427 0.415343,0.876686 0.477238,4.830307 0.07672,4.900875 -0.01196,5.784596 -0.655849,6.533126 -0.379914,0.441674 -0.629444,0.540261 -1.367471,0.540261 -0.722573,0 -1.01222,-0.109375 -1.451217,-0.547991 l -0.548455,-0.547984 -0.06145,-3.754278 -0.06145,-3.754286 H 67.487571 63.24674 v 3.575711 3.575719 l -0.578195,0.578195 c -0.758563,0.758564 -1.909391,0.801327 -2.72401,0.101234 l -0.554996,-0.476968 -0.06168,-3.676945 -0.06168,-3.676946 h -4.339486 c -3.051957,0 -4.339486,0.06527 -4.339486,0.219917 0,0.334048 1.604471,12.664426 3.459032,26.582714 0.913267,6.853963 1.816956,13.774262 2.00821,15.378456 0.345546,2.898375 0.345195,2.920138 -0.05555,3.461595 -0.221794,0.299688 -0.657823,0.669532 -0.968956,0.821872 -0.484946,0.23746 -0.675497,0.23746 -1.334905,0 -0.835119,-0.30072 -1.242208,-0.867042 -1.417837,-1.972415 -0.110145,-0.693267 -0.223296,-0.770338 -6.08811,-4.146849 -3.286737,-1.892248 -6.119503,-3.440453 -6.295027,-3.440453 -0.28235,0 -4.774909,2.543589 -10.272935,5.816316 -1.688128,1.004872 -1.889252,1.186466 -1.990882,1.797586 -0.170917,1.027771 -0.543213,1.573945 -1.283795,1.883375 -0.830959,0.3472 -1.229884,0.343 -1.898054,-0.02 z m 8.679413,-8.936121 c 1.983801,-1.136727 3.644462,-2.127521 3.69035,-2.201774 0.107604,-0.174103 -7.404766,-4.443912 -7.55477,-4.293904 -0.104916,0.104913 -1.198916,8.258762 -1.21764,9.075363 -0.0078,0.342151 0.03937,0.337411 0.733386,-0.07364 0.407973,-0.24162 2.364878,-1.369354 4.348674,-2.506074 z M 51.6926,85.072794 c -0.0637,-0.407979 -0.347721,-2.522021 -0.631103,-4.697883 -0.283382,-2.175862 -0.548111,-3.990687 -0.588273,-4.032957 -0.04015,-0.04224 -1.165944,0.5474 -2.501716,1.310367 -1.335779,0.762975 -3.029521,1.717592 -3.763877,2.121384 -0.734356,0.403785 -1.334837,0.79326 -1.334411,0.865487 7.48e-4,0.13608 8.476025,5.117644 8.769499,5.154531 0.09116,0.01144 0.113607,-0.312957 0.04987,-0.720929 z m -7.527912,-8.549388 c 2.263931,-1.302383 4.187818,-2.439559 4.275318,-2.527059 0.173334,-0.173327 -8.445231,-6.051177 -8.721869,-5.948305 -0.628397,0.233673 -8.650227,5.830257 -8.533041,5.953239 0.260193,0.273057 8.415898,4.884688 8.643463,4.887439 0.120949,0.0015 2.072206,-1.062938 4.336129,-2.365314 z M 33.635574,68.871087 c 1.870881,-1.26824 3.477019,-2.371737 3.569177,-2.452224 0.09217,-0.08049 -1.220774,-1.080822 -2.917627,-2.222962 -1.69686,-1.14214 -3.091907,-2.063675 -3.100103,-2.047856 -0.156333,0.301766 -1.241156,9.028918 -1.122334,9.028918 0.0931,0 1.699996,-1.037644 3.570887,-2.305876 z m 16.16006,2.162896 c 0,-0.365649 -1.220056,-8.857424 -1.281405,-8.918773 -0.120679,-0.120679 -6.050244,3.979503 -5.993007,4.144045 0.06018,0.173042 6.888697,4.866549 7.126056,4.898031 0.0816,0.01084 0.148356,-0.04463 0.148356,-0.123303 z m -6.037519,-9.005518 c 2.009346,-1.332715 3.655713,-2.473569 3.658606,-2.535232 0.0084,-0.179591 -7.292676,-6.415467 -7.51136,-6.415467 -0.224171,0 -7.524159,6.242058 -7.502785,6.415467 0.02235,0.181662 7.182524,4.932671 7.454131,4.94609 0.136431,0.0067 1.892061,-1.078145 3.901408,-2.410858 z m -8.325808,-8.950699 c 1.139741,-0.979139 2.078366,-1.880661 2.085828,-2.003381 0.0075,-0.12272 -0.155915,-0.345254 -0.363055,-0.494515 -0.207141,-0.14926 -1.191042,-0.971303 -2.186434,-1.826765 -0.995399,-0.855469 -1.840648,-1.523063 -1.878335,-1.483544 -0.06871,0.072 -1.097166,8.012745 -1.097166,8.471016 0,0.264654 0.318941,0.01772 3.439162,-2.662811 z M 47.6978,54.907469 c -0.06168,-0.462375 -0.306535,-2.353891 -0.544051,-4.203368 -0.258928,-2.01627 -0.517631,-3.362695 -0.646093,-3.362695 -0.223932,0 -4.427621,3.486895 -4.411653,3.659407 0.01406,0.152146 5.404854,4.74733 5.569261,4.74733 0.07961,0 0.09425,-0.378306 0.03252,-0.840674 z m -5.501729,-7.714411 2.155729,-1.829703 -2.223216,-0.05592 c -1.22277,-0.03073 -3.223668,-0.03073 -4.446439,0 l -2.223223,0.05592 2.155729,1.829703 c 1.185651,1.006329 2.216472,1.829696 2.29071,1.829696 0.07424,0 1.105059,-0.823367 2.29071,-1.829696 z m -12.128872,-7.07003 c 0.08593,-0.597536 0.131616,-1.184336 0.101519,-1.304013 -0.0344,-0.136761 -1.707972,0.248663 -4.505345,1.037587 -2.447842,0.690344 -4.539634,1.293284 -4.648427,1.339861 -0.108793,0.04658 1.848303,0.06856 4.349103,0.04882 l 4.546909,-0.03589 z m 5.599671,-0.13946 c 0.644882,-0.728621 1.33474,-1.529731 1.533029,-1.780248 l 0.360513,-0.455475 h -1.58347 c -1.814744,0 -1.703813,-0.123326 -1.912725,2.126408 -0.171876,1.850965 0.04792,1.865962 1.602653,0.109315 z m 5.623134,1.232759 c 0,-0.231633 -1.256248,-1.49043 -1.487409,-1.49043 -0.142779,0 -0.5416,0.356049 -0.886256,0.791226 l -0.626662,0.79122 h 1.500163 c 0.825086,0 1.500164,-0.04142 1.500164,-0.09202 z m 4.54952,-0.196615 c 0,-0.15874 -0.09983,-0.959857 -0.221847,-1.780248 l -0.221853,-1.491619 h -1.558395 c -0.857121,0 -1.558403,0.06489 -1.558403,0.144222 0,0.194102 3.214167,3.416276 3.407776,3.416276 0.084,0 0.152722,-0.129883 0.152722,-0.288631 z m 13.038672,0.210408 c -0.0453,-0.04299 -1.862665,-0.575945 -4.038527,-1.184283 -2.175855,-0.608339 -4.25369,-1.192387 -4.61741,-1.297898 l -0.6613,-0.191829 0.139848,1.227764 c 0.07691,0.675265 0.179472,1.294518 0.22791,1.376113 0.04845,0.08159 2.100428,0.148356 4.559986,0.148356 2.45955,0 4.434828,-0.03521 4.389493,-0.07822 z M 42.462744,32.681562 c 0.868118,-0.949855 0.978458,-1.156943 0.764118,-1.43409 -0.921198,-1.191101 -3.200066,-3.785506 -3.325104,-3.785506 -0.08338,0 -0.799309,0.778854 -1.590946,1.730794 -0.791638,0.951941 -1.556698,1.870075 -1.700128,2.040298 -0.22373,0.265529 -0.118384,0.469268 0.741548,1.43409 l 1.00233,1.124586 h 1.546777 1.54677 z m -4.719235,-7.855725 c -0.364348,-0.668237 -1.207862,-1.576696 -1.340668,-1.443891 -0.116014,0.116007 -0.630416,3.42127 -0.644433,4.140726 -0.0045,0.226668 0.400263,-0.122601 1.106262,-0.954781 0.994824,-1.172651 1.08829,-1.357909 0.878839,-1.742054 z m 6.110696,0.724106 c -0.130817,-1.069853 -0.30427,-2.017802 -0.385453,-2.106551 -0.152131,-0.166321 -1.585332,1.373339 -1.585332,1.703103 0,0.246301 2.0046,2.552658 2.119134,2.438132 0.04919,-0.04919 -0.01749,-0.964837 -0.148349,-2.034684 z m -2.556037,-5.959409 c -0.76604,-0.032 -2.024232,-0.032 -2.795968,0 l -1.403169,0.05809 1.413935,1.632341 1.413941,1.632334 1.382034,-1.632334 1.382034,-1.632341 z m 11.949171,-4.172663 c -0.103357,-0.09667 -1.605405,-0.942289 -3.337896,-1.879151 l -3.149977,-1.703383 h -6.887082 -6.88709 l -3.018093,1.617569 c -1.659951,0.889661 -3.193671,1.735283 -3.408266,1.879154 -0.325389,0.218145 1.87346,0.261581 13.243076,0.261581 7.958409,0 13.555025,-0.07319 13.445328,-0.17577 z"
       id="path1" /></g></svg>
