<?xml version="1.0" encoding="UTF-8" standalone="no"?>
<!-- Created with Inkscape (http://www.inkscape.org/) -->

<svg
   width="60mm"
   height="50mm"
   viewBox="0 0 60 50"
   version="1.1"
   id="svg1"
   xml:space="preserve"
   inkscape:version="1.3.2 (091e20e, 2023-11-25, custom)"
   sodipodi:docname="sun.svg"
   xmlns:inkscape="http://www.inkscape.org/namespaces/inkscape"
   xmlns:sodipodi="http://sodipodi.sourceforge.net/DTD/sodipodi-0.dtd"
   xmlns="http://www.w3.org/2000/svg"
   xmlns:svg="http://www.w3.org/2000/svg"><sodipodi:namedview
     id="namedview1"
     pagecolor="#ffffff"
     bordercolor="#000000"
     borderopacity="0.25"
     inkscape:showpageshadow="2"
     inkscape:pageopacity="0.0"
     inkscape:pagecheckerboard="0"
     inkscape:deskcolor="#d1d1d1"
     inkscape:document-units="mm"
     inkscape:zoom="1.4627806"
     inkscape:cx="230.72497"
     inkscape:cy="83.060988"
     inkscape:window-width="1920"
     inkscape:window-height="1017"
     inkscape:window-x="1912"
     inkscape:window-y="-8"
     inkscape:window-maximized="1"
     inkscape:current-layer="layer1" /><defs
     id="defs1" /><g
     inkscape:label="Layer 1"
     inkscape:groupmode="layer"
     id="layer1"><path
       style="fill:#fad913;fill-opacity:1"
       d="m 32.722565,41.417809 0.07361,-3.63803 h 1.852083 1.852083 l 0.07361,3.63803 0.07361,3.63802 h -1.999307 -1.999308 z m -8.437622,0.89746 -1.367484,-0.85309 0.983108,-1.8412 c 0.540709,-1.01266 1.374945,-2.46676 1.853858,-3.23133 l 0.870751,-1.39013 0.991408,0.59638 c 0.545274,0.32801 1.264029,0.77962 1.597233,1.00358 l 0.605826,0.4072 -1.721906,3.03238 c -0.947049,1.66782 -1.884672,3.0542 -2.083608,3.08085 -0.198936,0.0266 -0.977069,-0.33544 -1.729186,-0.80464 z m 17.108441,-1.93459 c -0.909989,-1.54371 -1.706523,-3.00559 -1.770076,-3.24861 -0.130087,-0.49746 2.412062,-2.24593 2.959812,-2.03574 0.28849,0.1107 3.33876,5.20842 3.51957,5.88203 0.0712,0.26521 -1.13267,1.18795 -2.4921,1.91015 -0.52411,0.27843 -0.67609,0.10652 -2.217206,-2.50783 z m -24.273768,-5.22785 c -0.472943,-0.78173 -0.859896,-1.53096 -0.859896,-1.66495 0,-0.13399 1.041797,-0.82159 2.315104,-1.52799 1.273307,-0.70641 2.63114,-1.50162 3.017406,-1.76714 0.386266,-0.26551 0.764599,-0.48276 0.840739,-0.48276 0.185791,0 2.111841,3.18293 1.99127,3.29071 -0.236004,0.21096 -6.181821,3.58763 -6.305548,3.58096 -0.07655,-0.004 -0.526132,-0.6471 -0.999075,-1.42883 z m 32.080724,0.28081 c -3.2756,-1.81207 -4.14794,-2.36302 -4.27796,-2.70185 -0.16637,-0.43353 1.25899,-3.02116 1.66436,-3.02153 0.36927,-3.3e-4 5.38962,2.81671 5.89154,3.30589 0.31276,0.30482 0.25011,0.56599 -0.4205,1.75299 -0.4334,0.76713 -0.89644,1.42807 -1.02897,1.46875 -0.13253,0.0407 -0.95534,-0.32124 -1.82847,-0.80425 z m -17.065621,0.26456 c -3.119517,-0.68049 -6.222529,-3.21672 -7.65012,-6.25279 -0.611923,-1.30138 -0.684254,-1.77685 -0.684254,-4.49792 0,-2.77686 0.06281,-3.16985 0.718843,-4.49792 1.16934,-2.36717 2.865878,-4.08001 5.168285,-5.21792 1.953926,-0.96568 2.118156,-0.99978 4.814774,-0.99978 2.621338,0 2.908856,0.0548 4.707708,0.89797 4.347375,2.03763 6.987135,6.91052 6.191255,11.4288 -0.81905,4.64982 -4.089613,8.19253 -8.407797,9.10742 -2.139298,0.45324 -2.905061,0.45831 -4.858694,0.0321 z m -17.543372,-8.80311 c -0.101041,-0.10104 -0.18371,-0.9973 -0.18371,-1.9917 v -1.80798 h 3.715758 3.715757 l -0.07774,1.91823 -0.07774,1.91823 -3.45431,0.0735 c -1.899871,0.0404 -3.53698,-0.009 -3.638021,-0.11024 z m 32.624623,-1.80784 v -1.99184 h 3.71576 3.71576 l -0.0777,1.91823 -0.0777,1.91823 -3.63803,0.0736 -3.63802,0.0736 z m -1.81401,-6.45837 c -0.64475,-1.20968 -0.75604,-1.61677 -0.49988,-1.82859 0.74975,-0.61999 5.88117,-3.44678 6.05822,-3.33735 0.28257,0.17464 1.88603,3.03197 1.76781,3.15019 -0.21489,0.21489 -6.15621,3.57186 -6.32164,3.57186 -0.0963,0 -0.54834,-0.70025 -1.00451,-1.55611 z m -26.061741,-0.41742 c -1.579944,-0.93453 -2.932258,-1.75878 -3.005144,-1.83167 -0.07288,-0.0729 0.309178,-0.85963 0.84903,-1.74832 0.931726,-1.53379 1.010399,-1.59694 1.549936,-1.24419 0.312613,0.20439 1.671663,0.99857 3.02011,1.76485 1.348448,0.76627 2.516155,1.49748 2.594905,1.6249 0.183688,0.29721 -1.510641,3.14498 -1.867297,3.13848 -0.147903,-0.003 -1.561596,-0.76952 -3.14154,-1.70405 z m 21.791356,-3.99937 c -1.880022,-1.08253 -1.897778,-1.10831 -1.417318,-2.05736 0.358456,-0.70805 2.944653,-5.14347 3.163633,-5.42574 0.0978,-0.1261 2.96616,1.521 3.14079,1.80355 0.14111,0.22833 -2.3542,4.70646 -3.21368,5.76735 l -0.48382,0.59719 z m -16.350976,-2.5421 c -0.916068,-1.62109 -1.606271,-3.10198 -1.533785,-3.29087 0.07249,-0.1889 0.748301,-0.65586 1.501811,-1.03769 1.13708,-0.5762 1.427616,-0.63426 1.708774,-0.34149 0.687798,0.71623 3.326846,5.57947 3.202934,5.90238 -0.141939,0.36989 -2.44689,1.72971 -2.916751,1.72075 -0.163572,-0.003 -1.046914,-1.332 -1.962983,-2.95308 z m 7.883287,-3.12667 v -3.70416 h 1.984375 1.984375 v 3.70416 3.70417 h -1.984375 -1.984375 z"
       id="path1"
       sodipodi:nodetypes="cccccccccscsscsscscssssssssssssscsssssscscsscsscsscccscccccccccccccccccssssssscsssscsssssscsssscscsccccccccc" /></g></svg>
