<?xml version="1.0" encoding="UTF-8" standalone="no"?>
<!-- Created with Inkscape (http://www.inkscape.org/) -->

<svg
   width="70mm"
   height="110mm"
   viewBox="0 0 70 110"
   version="1.1"
   id="svg1"
   xml:space="preserve"
   inkscape:version="1.3.2 (091e20e, 2023-11-25, custom)"
   sodipodi:docname="turbine.svg"
   xmlns:inkscape="http://www.inkscape.org/namespaces/inkscape"
   xmlns:sodipodi="http://sodipodi.sourceforge.net/DTD/sodipodi-0.dtd"
   xmlns="http://www.w3.org/2000/svg"
   xmlns:svg="http://www.w3.org/2000/svg"><sodipodi:namedview
     id="namedview1"
     pagecolor="#ffffff"
     bordercolor="#000000"
     borderopacity="0.25"
     inkscape:showpageshadow="2"
     inkscape:pageopacity="0.0"
     inkscape:pagecheckerboard="0"
     inkscape:deskcolor="#d1d1d1"
     inkscape:document-units="mm"
     inkscape:zoom="0.51717104"
     inkscape:cx="519.17061"
     inkscape:cy="714.46383"
     inkscape:window-width="1920"
     inkscape:window-height="1017"
     inkscape:window-x="1912"
     inkscape:window-y="-8"
     inkscape:window-maximized="1"
     inkscape:current-layer="layer1" /><defs
     id="defs1" /><g
     inkscape:label="Layer 1"
     inkscape:groupmode="layer"
     id="layer1"><path
       style="fill:#000000"
       d="M 40.763107,77.533233 V 47.671268 l 4.275667,6.955695 4.27567,6.95569 v 22.90627 22.906287 h -4.27567 -4.275667 z m 23.801437,-4.8869 c -0.67164,-0.45199 -1.52634,-1.25284 -2.6114,-2.44689 -4.85926,-5.34737 -11.9258,-15.29787 -16.560959,-23.319745 l -0.305761,-0.52917 0.568842,-6.3e-4 c 1.26705,-0.001 2.620134,-0.38639 3.763758,-1.07081 0.8243,-0.49332 2.00423,-1.58884 2.68657,-2.49437 l 0.49853,-0.66159 1.09849,1.9232 c 5.64235,9.878425 10.6076,21.002205 11.78038,26.391865 0.21058,0.96775 0.25711,2.02441 0.1016,2.30717 -0.15295,0.27809 -0.51135,0.2433 -1.02005,-0.099 z M 31.40744,41.891038 c -12.954461,-0.37421 -25.0184006,-2.09728 -26.8837372,-3.83977 -0.315979,-0.29517 -0.316718,-0.4365 -0.0037,-0.69992 1.385169,-1.16555 9.3400082,-2.57436 19.4367282,-3.44227 3.642394,-0.3131 9.551819,-0.59478 12.515267,-0.59656 l 1.085265,-6.5e-4 -0.173344,0.24344 c -0.348566,0.48951 -0.76724,1.49277 -0.946267,2.26751 -0.157222,0.68038 -0.17723,0.96084 -0.1396,1.9568 0.05635,1.49138 0.219603,2.12235 1.051104,4.06241 0.03582,0.0836 -0.504176,0.10218 -2.567199,0.0884 -1.436907,-0.01 -2.955458,-0.0273 -3.374558,-0.0394 z m 12.733582,-0.0724 c -1.141199,-0.27703 -2.286038,-1.14243 -2.80552,-2.12074 -0.878404,-1.65424 -0.574626,-3.73939 0.739938,-5.07897 2.306159,-2.35005 6.266289,-1.26462 7.124114,1.95264 0.161,0.60381 0.14247,1.59754 -0.04221,2.26352 -0.596037,2.1495 -2.873091,3.50381 -5.016328,2.98355 z m 8.249012,-8.74414 c -0.84043,-1.50815 -2.49722,-2.80043 -4.345593,-3.38953 -0.691443,-0.22037 -1.850455,-0.43706 -2.337687,-0.43706 -0.219488,0 -0.371647,-0.0391 -0.371647,-0.0955 0,-0.11825 0.2245,-0.51559 1.748655,-3.09493 6.615512,-11.1955 15.117962,-22.3130309 17.867612,-23.3631309 0.44654,-0.17054 0.61647,-0.1067 0.7215,0.27106 0.55806,2.00714 -4.64844,15.0453909 -10.2417,25.6475309 -0.8046,1.52513 -2.61127,4.77395 -2.71651,4.88493 -0.0307,0.0324 -0.17682,-0.15809 -0.32463,-0.42334 z"
       id="path1" /></g></svg>
