<?xml version="1.0" encoding="UTF-8" standalone="no"?>
<!-- Created with Inkscape (http://www.inkscape.org/) -->

<svg
   width="60mm"
   height="50mm"
   viewBox="0 0 60 50"
   version="1.1"
   id="svg1"
   xml:space="preserve"
   inkscape:version="1.3.2 (091e20e, 2023-11-25, custom)"
   sodipodi:docname="wind.svg"
   xmlns:inkscape="http://www.inkscape.org/namespaces/inkscape"
   xmlns:sodipodi="http://sodipodi.sourceforge.net/DTD/sodipodi-0.dtd"
   xmlns="http://www.w3.org/2000/svg"
   xmlns:svg="http://www.w3.org/2000/svg"><sodipodi:namedview
     id="namedview1"
     pagecolor="#ffffff"
     bordercolor="#000000"
     borderopacity="0.25"
     inkscape:showpageshadow="2"
     inkscape:pageopacity="0.0"
     inkscape:pagecheckerboard="0"
     inkscape:deskcolor="#d1d1d1"
     inkscape:document-units="mm"
     inkscape:zoom="1.4627806"
     inkscape:cx="230.72497"
     inkscape:cy="83.060988"
     inkscape:window-width="1920"
     inkscape:window-height="1017"
     inkscape:window-x="1912"
     inkscape:window-y="-8"
     inkscape:window-maximized="1"
     inkscape:current-layer="layer1" /><defs
     id="defs1" /><g
     inkscape:label="Layer 1"
     inkscape:groupmode="layer"
     id="layer1"><path
       style="fill:#000000"
       d="m 34.854968,45.88757 c -1.88316,-0.341162 -3.30094,-1.047128 -4.546798,-2.264017 -1.579953,-1.543216 -2.413907,-3.41997 -2.429497,-5.467412 -0.0072,-0.942246 -0.0019,-0.970824 0.240605,-1.314984 0.659308,-0.935504 2.06084,-0.944211 2.716038,-0.01687 0.195543,0.276762 0.249004,0.462083 0.307819,1.067044 0.03915,0.402661 0.170713,1.042685 0.292373,1.422275 0.8251,2.5745 3.80621,3.970971 6.3074,2.954645 3.13727,-1.274786 4.06591,-5.226706 1.80739,-7.691487 -0.58785,-0.641539 -1.22672,-1.075309 -2.00088,-1.358544 l -0.58696,-0.214743 -13.719324,-0.04132 C 9.5290438,32.920847 9.5236868,32.920767 9.1932268,32.748181 c -0.634995,-0.331636 -0.979453,-1.107082 -0.834646,-1.878966 0.02994,-0.159586 0.200611,-0.452201 0.387769,-0.664824 0.597689,-0.679011 -0.491553,-0.630827 14.2431832,-0.630063 8.296855,4.31e-4 13.335225,0.03131 13.807625,0.08463 3.93867,0.444548 6.90582,3.428985 7.3103,7.352876 0.2862,2.776513 -0.94619,5.568018 -3.21929,7.292075 -0.70199,0.532431 -2.02093,1.178288 -2.85131,1.396227 -0.64149,0.168364 -2.63799,0.285972 -3.18189,0.187436 z M 15.887594,26.277763 c -1.225206,-0.568766 -1.273769,-2.315345 -0.08265,-2.972442 0.227021,-0.125239 1.398458,-0.140266 13.884614,-0.178103 l 13.63667,-0.04132 0.57853,-0.194263 c 1.58733,-0.533011 2.74892,-1.740246 3.23251,-3.359537 0.2177,-0.72898 0.19669,-1.982959 -0.045,-2.686011 -0.44941,-1.307226 -1.3296,-2.321272 -2.49986,-2.88001 -0.7929,-0.378568 -1.3373,-0.508996 -2.11736,-0.507276 -0.71202,0.0016 -1.44246,0.175902 -2.1443,0.511774 -0.77021,0.368587 -1.78421,1.382585 -2.1528,2.152793 -0.30548,0.63834 -0.50978,1.421047 -0.51223,1.962416 -0.003,0.602042 -0.1508,0.980849 -0.53267,1.362727 -0.78099,0.78099 -2.0201,0.60987 -2.5887,-0.357499 -0.20372,-0.346579 -0.225,-0.456106 -0.21143,-1.087874 0.0795,-3.701163 2.80762,-6.938615 6.51393,-7.730087 0.87013,-0.185814 2.42399,-0.185113 3.30465,0.0015 2.47262,0.523929 4.61367,2.223228 5.70567,4.52845 0.60981,1.287326 0.73082,1.855759 0.73406,3.448085 0.003,1.416986 -0.0586,1.805514 -0.45792,2.892628 -0.7684,2.092016 -2.62795,3.971299 -4.6979,4.747753 -1.43495,0.538261 -0.109,0.493601 -15.373931,0.517814 -13.339219,0.02116 -13.855328,0.01637 -14.173877,-0.131506 z M 9.4683158,19.858546 c -0.466686,-0.146325 -1.029184,-0.738082 -1.109735,-1.16746 -0.144807,-0.771883 0.199651,-1.54733 0.834646,-1.878965 0.326677,-0.170612 0.421968,-0.173144 8.0580352,-0.214078 l 7.727449,-0.04142 0.554224,-0.18805 c 0.740108,-0.251122 1.715956,-0.916624 2.180762,-1.487222 0.764305,-0.938264 1.108076,-1.914393 1.108076,-3.146349 0,-3.6986403 -4.06488,-5.9858763 -7.261631,-4.0859903 -1.287943,0.765447 -2.320709,2.4172793 -2.324383,3.7176763 -0.002,0.701767 -0.162237,1.174778 -0.525944,1.552395 -0.702747,0.729624 -1.750461,0.703108 -2.42161,-0.06129 -0.382369,-0.435494 -0.472742,-0.793903 -0.409944,-1.625783 0.191867,-2.5416163 1.529292,-4.8420273 3.623157,-6.2319413 1.350723,-0.896615 2.552644,-1.288136 4.154948,-1.35346 2.150219,-0.08766 3.853448,0.478213 5.58018,1.853944 1.228294,0.978612 2.344002,2.754728 2.740032,4.361903 0.27414,1.1125023 0.25898,2.8380053 -0.0346,3.9355943 -0.786724,2.941633 -2.965196,5.100256 -5.971546,5.917136 l -0.826465,0.224566 -7.644803,0.01992 c -6.522271,0.017 -7.7014932,0.0022 -8.0308852,-0.101128 z"
       id="path5" /></g></svg>
